<?xml version="1.0" encoding="utf-8"?>
<!-- Generator: Adobe Illustrator 21.1.0, SVG Export Plug-In . SVG Version: 6.00 Build 0)  -->
<svg version="1.1" id="Layer_1" xmlns="http://www.w3.org/2000/svg" xmlns:xlink="http://www.w3.org/1999/xlink" x="0px" y="0px"
	 viewBox="0 0 440 112.2" style="enable-background:new 0 0 440 112.2;" xml:space="preserve">
<style type="text/css">
	.st0{enable-background:new    ;}
</style>
<g>
	<path d="M161,108.9c-3.5-0.6-5-2.7-5.8-5.2s-0.8-5-0.4-7.5c0.5-3.1,0.9-6.3,1.3-9.4c0.4-3,0.8-6,1.2-9c0.3-2.5,0.6-5.1,0.8-7.6
		c0.3-2.7,0.5-5.3,0.7-8c0.3-4.4,0.5-8.8,0.3-13.2c0-1.2-0.2-2.4-0.5-3.6c-0.2-1.2-0.8-2.1-2.1-2.9c-2.6-1.5-3.9-3.7-4.9-6.1
		c-0.8-1.9-0.9-3.7-0.7-5.7c0.2-1.3,0.1-2.7,0.2-4c0.2-3.4,0.2-6.7,0.4-10.1c0.1-3.5,0.3-7.1,0.5-10.6c0-0.6,0.2-1.3,0.4-1.9
		c0.2-0.4,0.5-0.8,1.1-0.8s0.8,0.4,1,0.8c0.3,0.6,0.3,1.3,0.3,2c0,8.3,0,16.6,0,24.9c0,0.3,0,0.5,0,0.8c0.2,0.5,0.5,0.9,1.3,0.9
		c0.7,0,1.2-0.4,1.3-1c0.1-0.4,0.1-0.8,0.1-1.3c0-3.7,0-7.3,0.1-11c0.1-4.3,0-8.7,0.2-13c0-0.8,0.1-1.6,0.5-2.4
		c0.2-0.3,0.5-0.6,1-0.6s0.7,0.4,0.9,0.7c0.1,0.3,0.2,0.6,0.2,0.9c0,5.1,0,10.3,0.2,15.4c0.1,3.7,0.1,7.3,0.1,11
		c0,0.2,0,0.4,0.1,0.6c0.2,0.5,0.6,0.9,1.3,0.8c0.7,0,1-0.5,1.2-1c0.1-0.2,0-0.4,0-0.6c0.1-6.1,0.1-12.1,0.2-18.2
		c0.1-2.6,0-5.2,0.1-7.8c0-0.4,0.1-0.9,0.3-1.3c0.1-0.3,0.4-0.6,0.8-0.6c0.5,0,0.7,0.2,0.9,0.5c0.5,0.7,0.6,1.5,0.6,2.3
		c0,2.9-0.1,5.9,0.1,8.8c0.2,4.2,0,8.4,0.2,12.5c0.1,1.1,0,2.2,0,3.4c0,0.3,0,0.6,0,0.9c0.1,0.6,0.6,0.9,1.3,0.9s1.1-0.3,1.3-0.9
		c0-0.2,0-0.5,0-0.8c0-8.3,0-16.6,0-25c0-0.7,0.1-1.4,0.4-2.1c0.2-0.3,0.4-0.7,0.9-0.7s0.8,0.3,1,0.6c0.4,0.6,0.5,1.2,0.5,1.8
		c0.1,1.9,0.2,3.8,0.3,5.8c0.2,4.9,0.4,9.9,0.6,14.8c0.1,2.2,0.3,4.5,0.3,6.7c0,1.8-0.8,3.6-1.7,5.2c-1,1.9-2.5,3.6-4.7,4.7
		c-0.7,0.3-0.9,0.9-1.1,1.5c-0.6,1.7-0.7,3.5-0.8,5.2c-0.1,3.2-0.1,6.5,0.2,9.7c0.2,3.4,0.5,6.9,0.9,10.3c0.4,4.3,0.9,8.6,1.5,12.8
		c0.5,4.2,1.2,8.5,1.8,12.7c0.5,3.1,0.6,6.1-0.5,9.2c-0.3,0.8-0.7,1.5-1.2,2.3c-1,1.4-2.5,2.2-4.4,2.5
		C162.4,108.9,161.7,108.9,161,108.9z"/>
</g>
<g class="st0">
	<path d="M45.5,3.3v28.8c0,3.6-1.1,6.5-3.3,8.8s-5,3.4-8.4,3.4c-4.1,0-7.3-1.9-9.5-5.7c-1.3,2-2.8,3.5-4.3,4.4
		c-1.5,0.9-3.4,1.3-5.7,1.3c-3.6,0-6.3-1.1-8.3-3.4c-1.9-2.3-2.9-5.5-2.9-9.8V3.3h11.9v26c0,1.3,0.1,2.1,0.3,2.5s0.6,0.6,1.2,0.6
		c1.2,0,1.8-1,1.8-3V3.3h11.9v26c0,1.3,0.1,2.1,0.3,2.5c0.2,0.4,0.6,0.6,1.3,0.6c1.2,0,1.8-1.1,1.8-3.2v-26H45.5z"/>
	<path d="M80.6,30.4H64c-0.3-0.8-0.4-1.6-0.4-2.3c0-1,0.2-1.9,0.5-2.9h5.6c-0.4-2.2-1.6-3.3-3.7-3.3c-1.4,0-2.5,0.6-3.3,1.7
		c-0.9,1.2-1.3,2.7-1.3,4.5c0,1.9,0.4,3.4,1.2,4.6c0.8,1.2,1.9,1.8,3.3,1.8c1.1,0,2.1-0.5,3.2-1.6l6.2,7.5c-2.9,2.3-6.1,3.4-9.7,3.4
		c-4.3,0-8-1.5-10.9-4.4c-2.9-2.9-4.4-6.5-4.4-10.8c0-4.3,1.5-7.9,4.5-10.8c3-2.9,6.6-4.4,11-4.4c4.2,0,7.8,1.4,10.7,4.3
		c2.9,2.9,4.3,6.4,4.3,10.6C80.7,28.8,80.7,29.5,80.6,30.4z"/>
	<path d="M111.2,43.3h-11V26.8c0-1.7-0.7-2.5-2.1-2.5c-1.4,0-2.1,0.8-2.1,2.5v16.5h-11V27c0-3.8,1.3-7,3.8-9.6s5.6-3.9,9.3-3.9
		c4.2,0,7.5,1.5,10,4.5c2,2.4,3,5.7,3,9.9V43.3z"/>
	<path d="M135.6,3.3h11v24.3c0,4.5-1.2,8.1-3.5,10.9c-1.3,1.6-3.1,2.9-5.1,3.9s-4.2,1.4-6.4,1.4c-4.4,0-8-1.5-11-4.4
		s-4.5-6.5-4.5-10.8c0-4.1,1.5-7.7,4.5-10.7c3-3,6.5-4.5,10.5-4.5c0.6,0,1.6,0.1,2.9,0.2v12.1c-0.9-0.7-1.8-1.1-2.7-1.1
		c-1.1,0-2.1,0.4-2.9,1.2c-0.8,0.8-1.2,1.8-1.2,3c0,1.1,0.4,2.1,1.3,2.9c0.8,0.8,1.8,1.2,3,1.2c2.8,0,4.2-1.9,4.2-5.8V3.3z"/>
</g>
<g class="st0">
	<path d="M184.5,2.5v2.1c2,0.1,3.5,0.8,4.8,2.1s1.8,2.8,1.8,4.7c0,2-0.7,3.6-2,5s-3,2-4.9,2c-1.9,0-3.5-0.7-4.8-2s-1.9-3-1.9-5
		c0-2.1,0.6-3.9,1.9-5.5S182.3,3.1,184.5,2.5z"/>
	<path d="M217,14.5V26c-1.5,0-2.6,0.3-3.2,0.9c-0.6,0.6-0.9,1.7-1.1,3.4c-0.5,5.6-2.7,9.6-6.6,12c-2.1,1.2-5,1.8-8.7,1.8h-1.5V32.5
		h0.5c1.8,0,3-0.4,3.8-1.1c0.8-0.7,1.2-2,1.3-3.9c0.2-3,0.4-5.1,0.8-6.3c0.4-1.2,1.2-2.4,2.4-3.6c2.1-2.1,5.1-3.1,8.9-3.1H217z"/>
	<path d="M248.2,3.3v40h-11.9v-40H248.2z M271.1,3.3l-10.5,18.1L271,43.3h-13.4l-9.1-22.1l10.3-17.9H271.1z"/>
	<path d="M285.2,14.1v29.2h-11V14.1H285.2z M279.7,1c1.5,0,2.8,0.5,3.9,1.6s1.6,2.3,1.6,3.7c0,1.5-0.5,2.8-1.5,3.8s-2.3,1.5-3.9,1.5
		s-2.9-0.5-3.9-1.5s-1.5-2.2-1.5-3.8c0-1.4,0.5-2.7,1.6-3.7S278.3,1,279.7,1z"/>
	<path d="M301.4,3.3v11.2h4.9V26h-4.9c0,2.3,0.4,3.9,1.1,4.8s2.1,1.3,4,1.3v11.5c-0.6,0-1,0-1.3,0c-2.5,0-4.8-0.6-7-1.7
		s-4-2.7-5.3-4.7c-1.7-2.5-2.5-5.9-2.5-10v-24H301.4z"/>
	<path d="M329.6,29.8l10.9-0.4c-0.3,4.2-1.9,7.7-4.7,10.4s-6.3,4.1-10.3,4.1c-4.3,0-7.9-1.5-10.9-4.5s-4.4-6.7-4.4-11
		c0-4.1,1.5-7.6,4.5-10.6s6.6-4.4,10.8-4.4c3.7,0,6.9,1.2,9.7,3.5s4.5,5.2,5.2,8.8l-11.1,0.4c-1-1.3-2.2-1.9-3.6-1.9
		c-1.3,0-2.3,0.4-3.1,1.2s-1.2,1.9-1.2,3.1c0,1.3,0.4,2.3,1.3,3.2s1.9,1.3,3.2,1.3C327.5,33.1,328.9,32,329.6,29.8z"/>
	<path d="M356.2,3.3v12.2c1.9-1.3,3.7-2,5.6-2c2.8,0,5,1,6.7,3s2.5,4.8,2.5,8.2v18.5h-11V27.8c0-1.3-0.1-2.1-0.4-2.5
		s-0.8-0.6-1.5-0.6c-1.2,0-1.8,0.9-1.8,2.7v15.9h-11v-40H356.2z"/>
	<path d="M406.1,30.4h-16.6c-0.3-0.8-0.4-1.6-0.4-2.3c0-1,0.2-1.9,0.5-2.9h5.6c-0.4-2.2-1.6-3.3-3.7-3.3c-1.4,0-2.5,0.6-3.3,1.7
		s-1.3,2.7-1.3,4.5c0,1.9,0.4,3.4,1.2,4.6s1.9,1.8,3.3,1.8c1.1,0,2.1-0.5,3.2-1.6l6.2,7.5c-2.9,2.3-6.1,3.4-9.7,3.4
		c-4.3,0-8-1.5-10.9-4.4s-4.4-6.5-4.4-10.8c0-4.3,1.5-7.9,4.5-10.8s6.6-4.4,11-4.4c4.2,0,7.8,1.4,10.7,4.3s4.3,6.4,4.3,10.6
		C406.2,28.8,406.1,29.5,406.1,30.4z"/>
	<path d="M436.7,43.3h-11V26.8c0-1.7-0.7-2.5-2.1-2.5c-1.4,0-2.1,0.8-2.1,2.5v16.5h-11V27c0-3.8,1.3-7,3.8-9.6s5.6-3.9,9.3-3.9
		c4.2,0,7.5,1.5,10,4.5c2,2.4,3,5.7,3,9.9V43.3z"/>
</g>
</svg>
